<svg width="770" height="770" viewBox="0 0 770 770" fill="none" xmlns="http://www.w3.org/2000/svg">
<circle cx="385" cy="385" r="385" fill="#4B469B"/>
<path d="M86.3 542.65C94.7333 541.183 101.883 539.533 107.75 537.7C113.617 535.867 119.483 532.75 125.35 528.35L228.2 196.15H261.2L374.5 528.9C383.667 535.5 395.767 540.083 410.8 542.65L408.6 563H271.1L273.85 542.65C295.117 540.083 311.983 535.133 324.45 527.8L296.4 444.75H185.3L160 527.8C172.1 534.767 189.883 539.717 213.35 542.65L211.15 563H83.55L86.3 542.65ZM287.05 416.15L238.65 272.6L194.1 416.15H287.05ZM556.606 566.85C508.573 566.85 473.006 551.633 449.906 521.2C427.173 490.767 415.806 443.467 415.806 379.3C415.806 315.5 427.356 268.2 450.456 237.4C473.923 206.6 509.856 191.2 558.256 191.2C579.156 191.2 597.856 194.317 614.356 200.55C631.223 206.783 644.239 215.4 653.406 226.4C662.939 237.4 667.706 249.867 667.706 263.8C667.706 275.9 664.589 286.167 658.356 294.6C652.123 303.033 644.606 307.25 635.806 307.25C628.473 307.25 621.873 305.233 616.006 301.2C610.139 297.167 606.106 292.033 603.906 285.8C610.873 276.267 614.356 267.1 614.356 258.3C614.356 246.933 609.223 237.95 598.956 231.35C588.689 224.383 575.123 220.9 558.256 220.9C528.556 220.9 506.556 233.917 492.256 259.95C477.956 285.617 470.806 325.4 470.806 379.3C470.806 432.467 477.773 471.517 491.706 496.45C506.006 521.383 528.189 533.85 558.256 533.85C577.323 533.85 595.839 529.45 613.806 520.65C632.139 511.483 645.889 500.85 655.056 488.75L674.306 509.65C662.939 523.583 647.173 536.6 627.006 548.7C606.839 560.8 583.373 566.85 556.606 566.85Z" fill="#E1DBD4"/>
</svg>
